<?xml version="1.0" encoding="UTF-8" standalone="no"?>
<!DOCTYPE svg PUBLIC "-//W3C//DTD SVG 1.1//EN"
 "http://www.w3.org/Graphics/SVG/1.1/DTD/svg11.dtd">
<!-- Generated by graphviz version 12.2.1 (20241206.2353)
 -->
<!-- Pages: 1 -->
<svg width="411pt" height="332pt"
 viewBox="0.00 0.00 410.88 332.00" xmlns="http://www.w3.org/2000/svg" xmlns:xlink="http://www.w3.org/1999/xlink">
<g id="graph0" class="graph" transform="scale(1 1) rotate(0) translate(4 328)">
<polygon fill="white" stroke="none" points="-4,4 -4,-328 406.88,-328 406.88,4 -4,4"/>
<!-- AppSettings -->
<g id="node1" class="node">
<title>AppSettings</title>
<path fill="#ffb90f" stroke="black" d="M150.88,-248.73C150.88,-250.53 132.33,-252 109.5,-252 86.67,-252 68.12,-250.53 68.12,-248.73 68.12,-248.73 68.12,-219.27 68.12,-219.27 68.12,-217.47 86.67,-216 109.5,-216 132.33,-216 150.88,-217.47 150.88,-219.27 150.88,-219.27 150.88,-248.73 150.88,-248.73"/>
<path fill="none" stroke="black" d="M150.88,-248.73C150.88,-246.92 132.33,-245.45 109.5,-245.45 86.67,-245.45 68.12,-246.92 68.12,-248.73"/>
<text text-anchor="middle" x="109.5" y="-228.95" font-family="Times,serif" font-size="14.00">AppSettings</text>
</g>
<!-- Components -->
<g id="node2" class="node">
<title>Components</title>
<path fill="#ffb90f" stroke="black" d="M104,-176.73C104,-178.53 84.95,-180 61.5,-180 38.05,-180 19,-178.53 19,-176.73 19,-176.73 19,-147.27 19,-147.27 19,-145.47 38.05,-144 61.5,-144 84.95,-144 104,-145.47 104,-147.27 104,-147.27 104,-176.73 104,-176.73"/>
<path fill="none" stroke="black" d="M104,-176.73C104,-174.92 84.95,-173.45 61.5,-173.45 38.05,-173.45 19,-174.92 19,-176.73"/>
<text text-anchor="middle" x="61.5" y="-156.95" font-family="Times,serif" font-size="14.00">Components</text>
</g>
<!-- AppSettings&#45;&gt;Components -->
<g id="edge3" class="edge">
<title>AppSettings&#45;&gt;Components</title>
<path fill="none" stroke="black" d="M97.63,-215.7C92.23,-207.81 85.71,-198.3 79.7,-189.55"/>
<polygon fill="black" stroke="black" points="82.63,-187.62 74.08,-181.35 76.85,-191.58 82.63,-187.62"/>
</g>
<!-- Networking -->
<g id="node8" class="node">
<title>Networking</title>
<path fill="#ffb90f" stroke="black" d="M244.75,-104.73C244.75,-106.53 226.71,-108 204.5,-108 182.29,-108 164.25,-106.53 164.25,-104.73 164.25,-104.73 164.25,-75.27 164.25,-75.27 164.25,-73.47 182.29,-72 204.5,-72 226.71,-72 244.75,-73.47 244.75,-75.27 244.75,-75.27 244.75,-104.73 244.75,-104.73"/>
<path fill="none" stroke="black" d="M244.75,-104.73C244.75,-102.92 226.71,-101.45 204.5,-101.45 182.29,-101.45 164.25,-102.92 164.25,-104.73"/>
<text text-anchor="middle" x="204.5" y="-84.95" font-family="Times,serif" font-size="14.00">Networking</text>
</g>
<!-- AppSettings&#45;&gt;Networking -->
<g id="edge1" class="edge">
<title>AppSettings&#45;&gt;Networking</title>
<path fill="none" stroke="black" d="M115.63,-215.66C122.67,-197 135.38,-166.92 151.5,-144 158.41,-134.18 167.22,-124.56 175.67,-116.26"/>
<polygon fill="black" stroke="black" points="177.96,-118.91 182.81,-109.49 173.14,-113.83 177.96,-118.91"/>
</g>
<!-- Routes -->
<g id="node10" class="node">
<title>Routes</title>
<path fill="#ffb90f" stroke="black" d="M214.5,-176.73C214.5,-178.53 202.4,-180 187.5,-180 172.6,-180 160.5,-178.53 160.5,-176.73 160.5,-176.73 160.5,-147.27 160.5,-147.27 160.5,-145.47 172.6,-144 187.5,-144 202.4,-144 214.5,-145.47 214.5,-147.27 214.5,-147.27 214.5,-176.73 214.5,-176.73"/>
<path fill="none" stroke="black" d="M214.5,-176.73C214.5,-174.92 202.4,-173.45 187.5,-173.45 172.6,-173.45 160.5,-174.92 160.5,-176.73"/>
<text text-anchor="middle" x="187.5" y="-156.95" font-family="Times,serif" font-size="14.00">Routes</text>
</g>
<!-- AppSettings&#45;&gt;Routes -->
<g id="edge2" class="edge">
<title>AppSettings&#45;&gt;Routes</title>
<path fill="none" stroke="black" d="M128.78,-215.7C138.3,-207.16 149.94,-196.71 160.34,-187.37"/>
<polygon fill="black" stroke="black" points="162.48,-190.16 167.58,-180.87 157.8,-184.95 162.48,-190.16"/>
</g>
<!-- DesignSystem -->
<g id="node5" class="node">
<title>DesignSystem</title>
<path fill="#ffb90f" stroke="black" d="M145.88,-104.73C145.88,-106.53 124.64,-108 98.5,-108 72.36,-108 51.12,-106.53 51.12,-104.73 51.12,-104.73 51.12,-75.27 51.12,-75.27 51.12,-73.47 72.36,-72 98.5,-72 124.64,-72 145.88,-73.47 145.88,-75.27 145.88,-75.27 145.88,-104.73 145.88,-104.73"/>
<path fill="none" stroke="black" d="M145.88,-104.73C145.88,-102.92 124.64,-101.45 98.5,-101.45 72.36,-101.45 51.12,-102.92 51.12,-104.73"/>
<text text-anchor="middle" x="98.5" y="-84.95" font-family="Times,serif" font-size="14.00">DesignSystem</text>
</g>
<!-- Components&#45;&gt;DesignSystem -->
<g id="edge4" class="edge">
<title>Components&#45;&gt;DesignSystem</title>
<path fill="none" stroke="black" d="M70.65,-143.7C74.72,-135.98 79.62,-126.71 84.17,-118.11"/>
<polygon fill="black" stroke="black" points="87.17,-119.92 88.75,-109.44 80.98,-116.65 87.17,-119.92"/>
</g>
<!-- DataStructures -->
<g id="node3" class="node">
<title>DataStructures</title>
<path fill="#ffb90f" stroke="black" d="M247.62,-32.73C247.62,-34.53 226.05,-36 199.5,-36 172.95,-36 151.38,-34.53 151.38,-32.73 151.38,-32.73 151.38,-3.27 151.38,-3.27 151.38,-1.47 172.95,0 199.5,0 226.05,0 247.62,-1.47 247.62,-3.27 247.62,-3.27 247.62,-32.73 247.62,-32.73"/>
<path fill="none" stroke="black" d="M247.62,-32.73C247.62,-30.92 226.05,-29.45 199.5,-29.45 172.95,-29.45 151.38,-30.92 151.38,-32.73"/>
<text text-anchor="middle" x="199.5" y="-12.95" font-family="Times,serif" font-size="14.00">DataStructures</text>
</g>
<!-- DependencyContainer -->
<g id="node4" class="node">
<title>DependencyContainer</title>
<path fill="#ffb90f" stroke="black" d="M402.88,-32.73C402.88,-34.53 372.23,-36 334.5,-36 296.77,-36 266.12,-34.53 266.12,-32.73 266.12,-32.73 266.12,-3.27 266.12,-3.27 266.12,-1.47 296.77,0 334.5,0 372.23,0 402.88,-1.47 402.88,-3.27 402.88,-3.27 402.88,-32.73 402.88,-32.73"/>
<path fill="none" stroke="black" d="M402.88,-32.73C402.88,-30.92 372.23,-29.45 334.5,-29.45 296.77,-29.45 266.12,-30.92 266.12,-32.73"/>
<text text-anchor="middle" x="334.5" y="-12.95" font-family="Times,serif" font-size="14.00">DependencyContainer</text>
</g>
<!-- DesignSystem&#45;&gt;DataStructures -->
<g id="edge7" class="edge">
<title>DesignSystem&#45;&gt;DataStructures</title>
<path fill="none" stroke="black" d="M123.73,-71.52C136.35,-62.76 151.82,-52.04 165.48,-42.58"/>
<polygon fill="black" stroke="black" points="167.13,-45.7 173.35,-37.12 163.14,-39.94 167.13,-45.7"/>
</g>
<!-- DesignSystem&#45;&gt;DependencyContainer -->
<g id="edge8" class="edge">
<title>DesignSystem&#45;&gt;DependencyContainer</title>
<path fill="none" stroke="black" d="M146.08,-74.8C149.27,-73.85 152.43,-72.91 155.5,-72 192.64,-60.96 234.14,-48.67 267.81,-38.71"/>
<polygon fill="black" stroke="black" points="268.41,-42.18 277.01,-35.99 266.42,-35.47 268.41,-42.18"/>
</g>
<!-- Logger -->
<g id="node6" class="node">
<title>Logger</title>
<path fill="#ffb90f" stroke="black" d="M55,-32.73C55,-34.53 42.67,-36 27.5,-36 12.33,-36 0,-34.53 0,-32.73 0,-32.73 0,-3.27 0,-3.27 0,-1.47 12.33,0 27.5,0 42.67,0 55,-1.47 55,-3.27 55,-3.27 55,-32.73 55,-32.73"/>
<path fill="none" stroke="black" d="M55,-32.73C55,-30.92 42.67,-29.45 27.5,-29.45 12.33,-29.45 0,-30.92 0,-32.73"/>
<text text-anchor="middle" x="27.5" y="-12.95" font-family="Times,serif" font-size="14.00">Logger</text>
</g>
<!-- DesignSystem&#45;&gt;Logger -->
<g id="edge6" class="edge">
<title>DesignSystem&#45;&gt;Logger</title>
<path fill="none" stroke="black" d="M80.95,-71.7C72.52,-63.39 62.27,-53.28 53,-44.14"/>
<polygon fill="black" stroke="black" points="55.5,-41.7 45.93,-37.17 50.59,-46.68 55.5,-41.7"/>
</g>
<!-- Streams -->
<g id="node11" class="node">
<title>Streams</title>
<path fill="#ffb90f" stroke="black" d="M133.62,-32.73C133.62,-34.53 120.12,-36 103.5,-36 86.88,-36 73.38,-34.53 73.38,-32.73 73.38,-32.73 73.38,-3.27 73.38,-3.27 73.38,-1.47 86.88,0 103.5,0 120.12,0 133.62,-1.47 133.62,-3.27 133.62,-3.27 133.62,-32.73 133.62,-32.73"/>
<path fill="none" stroke="black" d="M133.62,-32.73C133.62,-30.92 120.12,-29.45 103.5,-29.45 86.88,-29.45 73.38,-30.92 73.38,-32.73"/>
<text text-anchor="middle" x="103.5" y="-12.95" font-family="Times,serif" font-size="14.00">Streams</text>
</g>
<!-- DesignSystem&#45;&gt;Streams -->
<g id="edge5" class="edge">
<title>DesignSystem&#45;&gt;Streams</title>
<path fill="none" stroke="black" d="M99.74,-71.7C100.26,-64.41 100.88,-55.73 101.46,-47.54"/>
<polygon fill="black" stroke="black" points="104.95,-47.84 102.17,-37.61 97.97,-47.34 104.95,-47.84"/>
</g>
<!-- ModularAppDev -->
<g id="node7" class="node">
<title>ModularAppDev</title>
<polygon fill="deepskyblue" stroke="black" stroke-width="1.5" points="214,-324 109,-324 105,-320 105,-288 210,-288 214,-292 214,-324"/>
<polyline fill="none" stroke="black" stroke-width="1.5" points="210,-320 105,-320"/>
<polyline fill="none" stroke="black" stroke-width="1.5" points="210,-320 210,-288"/>
<polyline fill="none" stroke="black" stroke-width="1.5" points="210,-320 214,-324"/>
<text text-anchor="middle" x="159.5" y="-300.95" font-family="Times,serif" font-size="14.00">ModularAppDev</text>
</g>
<!-- ModularAppDev&#45;&gt;AppSettings -->
<g id="edge9" class="edge">
<title>ModularAppDev&#45;&gt;AppSettings</title>
<path fill="none" stroke="black" d="M147.14,-287.7C141.45,-279.73 134.57,-270.1 128.26,-261.26"/>
<polygon fill="black" stroke="black" points="131.26,-259.44 122.6,-253.34 125.56,-263.51 131.26,-259.44"/>
</g>
<!-- Onboarding -->
<g id="node9" class="node">
<title>Onboarding</title>
<path fill="#ffb90f" stroke="black" d="M249.75,-248.73C249.75,-250.53 231.71,-252 209.5,-252 187.29,-252 169.25,-250.53 169.25,-248.73 169.25,-248.73 169.25,-219.27 169.25,-219.27 169.25,-217.47 187.29,-216 209.5,-216 231.71,-216 249.75,-217.47 249.75,-219.27 249.75,-219.27 249.75,-248.73 249.75,-248.73"/>
<path fill="none" stroke="black" d="M249.75,-248.73C249.75,-246.92 231.71,-245.45 209.5,-245.45 187.29,-245.45 169.25,-246.92 169.25,-248.73"/>
<text text-anchor="middle" x="209.5" y="-228.95" font-family="Times,serif" font-size="14.00">Onboarding</text>
</g>
<!-- ModularAppDev&#45;&gt;Onboarding -->
<g id="edge10" class="edge">
<title>ModularAppDev&#45;&gt;Onboarding</title>
<path fill="none" stroke="black" d="M171.86,-287.7C177.55,-279.73 184.43,-270.1 190.74,-261.26"/>
<polygon fill="black" stroke="black" points="193.44,-263.51 196.4,-253.34 187.74,-259.44 193.44,-263.51"/>
</g>
<!-- Networking&#45;&gt;DataStructures -->
<g id="edge13" class="edge">
<title>Networking&#45;&gt;DataStructures</title>
<path fill="none" stroke="black" d="M203.26,-71.7C202.74,-64.41 202.12,-55.73 201.54,-47.54"/>
<polygon fill="black" stroke="black" points="205.03,-47.34 200.83,-37.61 198.05,-47.84 205.03,-47.34"/>
</g>
<!-- Networking&#45;&gt;DependencyContainer -->
<g id="edge11" class="edge">
<title>Networking&#45;&gt;DependencyContainer</title>
<path fill="none" stroke="black" d="M235.64,-72.23C252.62,-63.09 273.89,-51.64 292.34,-41.7"/>
<polygon fill="black" stroke="black" points="293.78,-44.9 300.93,-37.08 290.46,-38.74 293.78,-44.9"/>
</g>
<!-- Networking&#45;&gt;Logger -->
<g id="edge12" class="edge">
<title>Networking&#45;&gt;Logger</title>
<path fill="none" stroke="black" d="M163.77,-74.42C137.99,-65.01 103.77,-52.17 65.61,-36.33"/>
<polygon fill="black" stroke="black" points="67.26,-33.23 56.69,-32.6 64.56,-39.69 67.26,-33.23"/>
</g>
<!-- Networking&#45;&gt;Streams -->
<g id="edge14" class="edge">
<title>Networking&#45;&gt;Streams</title>
<path fill="none" stroke="black" d="M179.79,-71.88C166.79,-62.87 150.67,-51.69 136.6,-41.94"/>
<polygon fill="black" stroke="black" points="138.71,-39.15 128.5,-36.33 134.73,-44.9 138.71,-39.15"/>
</g>
<!-- Onboarding&#45;&gt;Components -->
<g id="edge17" class="edge">
<title>Onboarding&#45;&gt;Components</title>
<path fill="none" stroke="black" d="M174.8,-216.59C154.54,-207 128.73,-194.8 106.87,-184.46"/>
<polygon fill="black" stroke="black" points="108.4,-181.31 97.86,-180.2 105.41,-187.64 108.4,-181.31"/>
</g>
<!-- Onboarding&#45;&gt;Networking -->
<g id="edge16" class="edge">
<title>Onboarding&#45;&gt;Networking</title>
<path fill="none" stroke="black" d="M215.63,-215.58C221.16,-197.62 227.81,-168.81 223.5,-144 222.04,-135.62 219.38,-126.82 216.5,-118.84"/>
<polygon fill="black" stroke="black" points="219.82,-117.72 212.94,-109.67 213.3,-120.25 219.82,-117.72"/>
</g>
<!-- Onboarding&#45;&gt;Routes -->
<g id="edge15" class="edge">
<title>Onboarding&#45;&gt;Routes</title>
<path fill="none" stroke="black" d="M204.06,-215.7C201.72,-208.24 198.92,-199.32 196.29,-190.97"/>
<polygon fill="black" stroke="black" points="199.67,-190.04 193.33,-181.55 192.99,-192.14 199.67,-190.04"/>
</g>
<!-- Routes&#45;&gt;DesignSystem -->
<g id="edge18" class="edge">
<title>Routes&#45;&gt;DesignSystem</title>
<path fill="none" stroke="black" d="M166.41,-144.41C155.43,-135.78 141.8,-125.05 129.63,-115.48"/>
<polygon fill="black" stroke="black" points="131.9,-112.81 121.87,-109.38 127.57,-118.32 131.9,-112.81"/>
</g>
</g>
</svg>
