<?xml version="1.0" encoding="UTF-8" standalone="no"?>
<!DOCTYPE svg PUBLIC "-//W3C//DTD SVG 1.1//EN"
 "http://www.w3.org/Graphics/SVG/1.1/DTD/svg11.dtd">
<!-- Generated by graphviz version 12.2.1 (20241206.2353)
 -->
<!-- Pages: 1 -->
<svg width="411pt" height="260pt"
 viewBox="0.00 0.00 411.25 260.00" xmlns="http://www.w3.org/2000/svg" xmlns:xlink="http://www.w3.org/1999/xlink">
<g id="graph0" class="graph" transform="scale(1 1) rotate(0) translate(4 256)">
<polygon fill="white" stroke="none" points="-4,4 -4,-256 407.25,-256 407.25,4 -4,4"/>
<!-- DataStructures -->
<g id="node1" class="node">
<title>DataStructures</title>
<path fill="#ffb90f" stroke="black" d="M96.25,-32.73C96.25,-34.53 74.68,-36 48.12,-36 21.57,-36 0,-34.53 0,-32.73 0,-32.73 0,-3.27 0,-3.27 0,-1.47 21.57,0 48.12,0 74.68,0 96.25,-1.47 96.25,-3.27 96.25,-3.27 96.25,-32.73 96.25,-32.73"/>
<path fill="none" stroke="black" d="M96.25,-32.73C96.25,-30.92 74.68,-29.45 48.12,-29.45 21.57,-29.45 0,-30.92 0,-32.73"/>
<text text-anchor="middle" x="48.12" y="-12.95" font-family="Times,serif" font-size="14.00">DataStructures</text>
</g>
<!-- DependencyContainer -->
<g id="node2" class="node">
<title>DependencyContainer</title>
<path fill="#ffb90f" stroke="black" d="M251.5,-32.73C251.5,-34.53 220.85,-36 183.12,-36 145.4,-36 114.75,-34.53 114.75,-32.73 114.75,-32.73 114.75,-3.27 114.75,-3.27 114.75,-1.47 145.4,0 183.12,0 220.85,0 251.5,-1.47 251.5,-3.27 251.5,-3.27 251.5,-32.73 251.5,-32.73"/>
<path fill="none" stroke="black" d="M251.5,-32.73C251.5,-30.92 220.85,-29.45 183.12,-29.45 145.4,-29.45 114.75,-30.92 114.75,-32.73"/>
<text text-anchor="middle" x="183.12" y="-12.95" font-family="Times,serif" font-size="14.00">DependencyContainer</text>
</g>
<!-- DesignSystem -->
<g id="node3" class="node">
<title>DesignSystem</title>
<path fill="#ffb90f" stroke="black" d="M287.5,-104.73C287.5,-106.53 266.27,-108 240.12,-108 213.98,-108 192.75,-106.53 192.75,-104.73 192.75,-104.73 192.75,-75.27 192.75,-75.27 192.75,-73.47 213.98,-72 240.12,-72 266.27,-72 287.5,-73.47 287.5,-75.27 287.5,-75.27 287.5,-104.73 287.5,-104.73"/>
<path fill="none" stroke="black" d="M287.5,-104.73C287.5,-102.92 266.27,-101.45 240.12,-101.45 213.98,-101.45 192.75,-102.92 192.75,-104.73"/>
<text text-anchor="middle" x="240.12" y="-84.95" font-family="Times,serif" font-size="14.00">DesignSystem</text>
</g>
<!-- DesignSystem&#45;&gt;DataStructures -->
<g id="edge1" class="edge">
<title>DesignSystem&#45;&gt;DataStructures</title>
<path fill="none" stroke="black" d="M192.66,-71.7C165.59,-61.82 131.51,-49.4 103.25,-39.1"/>
<polygon fill="black" stroke="black" points="104.75,-35.92 94.16,-35.78 102.35,-42.5 104.75,-35.92"/>
</g>
<!-- DesignSystem&#45;&gt;DependencyContainer -->
<g id="edge2" class="edge">
<title>DesignSystem&#45;&gt;DependencyContainer</title>
<path fill="none" stroke="black" d="M226.04,-71.7C219.48,-63.64 211.54,-53.89 204.28,-44.98"/>
<polygon fill="black" stroke="black" points="207.04,-42.82 198.01,-37.28 201.61,-47.24 207.04,-42.82"/>
</g>
<!-- Logger -->
<g id="node4" class="node">
<title>Logger</title>
<path fill="#ffb90f" stroke="black" d="M324.62,-32.73C324.62,-34.53 312.3,-36 297.12,-36 281.95,-36 269.62,-34.53 269.62,-32.73 269.62,-32.73 269.62,-3.27 269.62,-3.27 269.62,-1.47 281.95,0 297.12,0 312.3,0 324.62,-1.47 324.62,-3.27 324.62,-3.27 324.62,-32.73 324.62,-32.73"/>
<path fill="none" stroke="black" d="M324.62,-32.73C324.62,-30.92 312.3,-29.45 297.12,-29.45 281.95,-29.45 269.62,-30.92 269.62,-32.73"/>
<text text-anchor="middle" x="297.12" y="-12.95" font-family="Times,serif" font-size="14.00">Logger</text>
</g>
<!-- DesignSystem&#45;&gt;Logger -->
<g id="edge3" class="edge">
<title>DesignSystem&#45;&gt;Logger</title>
<path fill="none" stroke="black" d="M254.21,-71.7C260.77,-63.64 268.71,-53.89 275.97,-44.98"/>
<polygon fill="black" stroke="black" points="278.64,-47.24 282.24,-37.28 273.21,-42.82 278.64,-47.24"/>
</g>
<!-- Streams -->
<g id="node7" class="node">
<title>Streams</title>
<path fill="#ffb90f" stroke="black" d="M403.25,-32.73C403.25,-34.53 389.75,-36 373.12,-36 356.5,-36 343,-34.53 343,-32.73 343,-32.73 343,-3.27 343,-3.27 343,-1.47 356.5,0 373.12,0 389.75,0 403.25,-1.47 403.25,-3.27 403.25,-3.27 403.25,-32.73 403.25,-32.73"/>
<path fill="none" stroke="black" d="M403.25,-32.73C403.25,-30.92 389.75,-29.45 373.12,-29.45 356.5,-29.45 343,-30.92 343,-32.73"/>
<text text-anchor="middle" x="373.12" y="-12.95" font-family="Times,serif" font-size="14.00">Streams</text>
</g>
<!-- DesignSystem&#45;&gt;Streams -->
<g id="edge4" class="edge">
<title>DesignSystem&#45;&gt;Streams</title>
<path fill="none" stroke="black" d="M273.34,-71.52C291.39,-62.02 313.84,-50.2 332.88,-40.18"/>
<polygon fill="black" stroke="black" points="334.49,-43.29 341.71,-35.53 331.23,-37.09 334.49,-43.29"/>
</g>
<!-- ModularAppDev -->
<g id="node5" class="node">
<title>ModularAppDev</title>
<polygon fill="deepskyblue" stroke="black" stroke-width="1.5" points="294.62,-252 189.62,-252 185.62,-248 185.62,-216 290.62,-216 294.62,-220 294.62,-252"/>
<polyline fill="none" stroke="black" stroke-width="1.5" points="290.62,-248 185.62,-248"/>
<polyline fill="none" stroke="black" stroke-width="1.5" points="290.62,-248 290.62,-216"/>
<polyline fill="none" stroke="black" stroke-width="1.5" points="290.62,-248 294.62,-252"/>
<text text-anchor="middle" x="240.12" y="-228.95" font-family="Times,serif" font-size="14.00">ModularAppDev</text>
</g>
<!-- Onboarding -->
<g id="node6" class="node">
<title>Onboarding</title>
<path fill="#ffb90f" stroke="black" d="M280.38,-176.73C280.38,-178.53 262.33,-180 240.12,-180 217.92,-180 199.88,-178.53 199.88,-176.73 199.88,-176.73 199.88,-147.27 199.88,-147.27 199.88,-145.47 217.92,-144 240.12,-144 262.33,-144 280.38,-145.47 280.38,-147.27 280.38,-147.27 280.38,-176.73 280.38,-176.73"/>
<path fill="none" stroke="black" d="M280.38,-176.73C280.38,-174.92 262.33,-173.45 240.12,-173.45 217.92,-173.45 199.88,-174.92 199.88,-176.73"/>
<text text-anchor="middle" x="240.12" y="-156.95" font-family="Times,serif" font-size="14.00">Onboarding</text>
</g>
<!-- ModularAppDev&#45;&gt;Onboarding -->
<g id="edge5" class="edge">
<title>ModularAppDev&#45;&gt;Onboarding</title>
<path fill="none" stroke="black" d="M240.12,-215.7C240.12,-208.41 240.12,-199.73 240.12,-191.54"/>
<polygon fill="black" stroke="black" points="243.63,-191.62 240.13,-181.62 236.63,-191.62 243.63,-191.62"/>
</g>
<!-- Onboarding&#45;&gt;DesignSystem -->
<g id="edge6" class="edge">
<title>Onboarding&#45;&gt;DesignSystem</title>
<path fill="none" stroke="black" d="M240.12,-143.7C240.12,-136.41 240.12,-127.73 240.12,-119.54"/>
<polygon fill="black" stroke="black" points="243.63,-119.62 240.13,-109.62 236.63,-119.62 243.63,-119.62"/>
</g>
</g>
</svg>
